HIERARCHY
ROOT root
{
	OFFSET 0.000000 0.000000 0.000000
	CHANNELS 6 Xposition Yposition Zposition Zrotation Yrotation Xrotation
	JOINT lhip
	{
		OFFSET 0.058581 -0.082280 -0.017664
		CHANNELS 3 Zrotation Yrotation Xrotation
		JOINT lknee
		{
			OFFSET 0.043451 -0.386469 0.008037
			CHANNELS 3 Zrotation Yrotation Xrotation
			JOINT lankle
			{
				OFFSET -0.014790 -0.426874 -0.037428
				CHANNELS 3 Zrotation Yrotation Xrotation
				JOINT ltoe
				{
					OFFSET 0.041054 -0.060286 0.122042
					CHANNELS 3 Zrotation Yrotation Xrotation
					End Site
					{
						OFFSET 0.000000 0.000000 0.000000
					}
				}
			}
		}
	}
	JOINT rhip
	{
		OFFSET -0.060310 -0.090513 -0.013543
		CHANNELS 3 Zrotation Yrotation Xrotation
		JOINT rknee
		{
			OFFSET -0.043257 -0.383688 -0.004843
			CHANNELS 3 Zrotation Yrotation Xrotation
			JOINT rankle
			{
				OFFSET 0.019056 -0.420046 -0.034562
				CHANNELS 3 Zrotation Yrotation Xrotation
				JOINT rtoe
				{
					OFFSET -0.034840 -0.062106 0.130323
					CHANNELS 3 Zrotation Yrotation Xrotation
					End Site
					{
						OFFSET 0.000000 0.000000 0.000000
					}
				}
			}
		}
	}
	JOINT lowerback
	{
		OFFSET 0.004439 0.124404 -0.038385
		CHANNELS 3 Zrotation Yrotation Xrotation
		JOINT upperback
		{
			OFFSET 0.004488 0.137956 0.026820
			CHANNELS 3 Zrotation Yrotation Xrotation
			JOINT chest
			{
				OFFSET -0.002265 0.056032 0.002855
				CHANNELS 3 Zrotation Yrotation Xrotation
				JOINT lowerneck
				{
					OFFSET -0.013390 0.211636 -0.033468
					CHANNELS 3 Zrotation Yrotation Xrotation
					JOINT upperneck
					{
						OFFSET 0.010113 0.088937 0.050410
						CHANNELS 3 Zrotation Yrotation Xrotation
						End Site
						{
							OFFSET 0.000000 0.000000 0.000000
						}
					}
				}
				JOINT lclavicle
				{
					OFFSET 0.071702 0.114000 -0.018898
					CHANNELS 3 Zrotation Yrotation Xrotation
					JOINT lshoulder
					{
						OFFSET 0.122921 0.045205 -0.019046
						CHANNELS 3 Zrotation Yrotation Xrotation
						JOINT lelbow
						{
							OFFSET 0.255332 -0.015649 -0.022946
							CHANNELS 3 Zrotation Yrotation Xrotation
							JOINT lwrist
							{
								OFFSET 0.265709 0.012698 -0.007375
								CHANNELS 3 Zrotation Yrotation Xrotation
								End Site
								{
									OFFSET 0.000000 0.000000 0.000000
								}
							}
						}
					}
				}
				JOINT rclavicle
				{
					OFFSET -0.082954 0.112472 -0.023707
					CHANNELS 3 Zrotation Yrotation Xrotation
					JOINT rshoulder
					{
						OFFSET -0.113228 0.046853 -0.008472
						CHANNELS 3 Zrotation Yrotation Xrotation
						JOINT relbow
						{
							OFFSET -0.260127 -0.014369 -0.031269
							CHANNELS 3 Zrotation Yrotation Xrotation
							JOINT rwrist
							{
								OFFSET -0.269108 0.006794 -0.006027
								CHANNELS 3 Zrotation Yrotation Xrotation
								End Site
								{
									OFFSET 0.000000 0.000000 0.000000
								}
							}
						}
					}
				}
			}
		}
	}
}
MOTION
Frames: 8
Frame Time: 0.033333
2.489001 -0.188924 0.842462 -109.043245 -0.395233 106.994401 1.578503 -4.852286 -19.452518 -17.841656 -3.722758 54.422861 3.090489 3.199921 -29.078559 0.000000 -0.000000 0.000000 -5.869133 -1.134810 -17.970441 -2.206403 -6.160106 64.851460 4.939107 -11.487503 -22.598058 0.000000 -0.000000 0.000000 0.443628 3.716739 22.729521 1.708808 1.823355 -4.807741 0.192457 1.158708 -2.275876 -3.790537 8.570849 -22.335870 -5.385434 2.019262 -0.048552 -26.484692 -5.190120 -0.631103 -47.701103 -6.631824 11.662465 11.437875 -59.413962 6.627210 5.291724 -14.262934 -13.211549 27.301555 4.667450 2.557950 41.190702 -0.669012 8.981955 -36.650362 47.709567 -22.436822 1.602789 9.815771 -2.432619 
2.437075 -0.183721 0.833937 -104.348501 0.022461 106.641146 0.626935 -4.912352 -12.892007 -17.247060 -9.620203 50.825563 4.093115 5.654730 -31.613612 0.000000 -0.000000 0.000000 -6.150845 -1.099829 -28.210161 -3.081992 -10.682412 79.823128 4.332944 -10.811303 -23.911532 0.000000 -0.000000 0.000000 1.912883 -1.193510 26.432155 3.133104 0.947252 -5.584718 1.153952 -0.495476 -2.443920 -3.663304 8.856164 -21.953397 -5.069701 3.817368 -1.530565 -25.395289 -8.726301 -0.712261 -47.857371 -11.116869 11.813678 26.214042 -66.131627 -6.131351 9.039798 -14.332055 -14.289059 25.492341 5.186047 2.469718 40.097878 -4.296058 7.893571 -36.217776 46.322374 -23.187699 -1.894568 10.321382 -3.442075 
2.377326 -0.179373 0.829291 -101.089650 0.570655 107.095292 -0.007004 -4.474087 -5.423638 -15.134624 -15.607018 44.106669 3.090357 6.802606 -32.553516 0.000000 -0.000000 0.000000 -7.966498 -2.310553 -39.707250 -4.890887 -15.857250 88.345327 3.215340 -9.703789 -25.522031 0.000000 -0.000000 0.000000 4.125884 -6.701607 28.828243 3.720883 0.724773 -5.599856 2.206939 -1.479493 -3.034563 -4.944210 9.157725 -20.808445 -4.447072 5.748224 -2.623498 -21.384436 -10.830897 -1.929337 -51.257071 -13.703830 12.016400 55.678809 -70.613083 -33.018622 7.947905 -15.339974 -13.878957 21.463084 5.066881 1.928625 38.707345 -8.735899 5.661156 -31.910924 52.328203 -18.924055 -3.110190 11.476600 -1.966853 
2.289328 -0.175178 0.834901 -102.953300 2.303000 108.223271 -1.017515 -2.652064 3.951877 -11.959005 -21.003039 33.326561 -1.719184 7.131849 -24.042894 0.000000 -0.000000 0.000000 -8.817877 -2.610314 -53.637830 -5.411146 -20.780813 86.690248 2.839326 -5.667342 -27.963799 0.000000 -0.000000 0.000000 7.301221 -12.347503 31.398321 2.845533 2.341333 -4.499849 2.398145 -1.325112 -2.535763 -7.736975 11.131550 -18.863151 -5.088109 7.539667 -6.815230 -16.831593 -9.618705 -3.248413 -54.587503 -14.356259 10.847994 103.054304 -70.007928 -76.794158 8.788635 -17.063477 -15.713944 16.040063 5.457975 3.109593 37.146455 -9.599334 3.983052 -25.100986 61.195589 -8.924313 -3.599555 13.855062 -2.257123 
2.231311 -0.171874 0.845449 -107.273663 3.297171 108.564227 -2.425872 -1.001951 7.537860 -10.657036 -21.831057 28.822841 -8.732697 5.100080 -9.532414 0.000000 -0.000000 0.000000 -8.423175 -0.805779 -59.130205 -5.029334 -23.093365 80.163128 3.341202 -1.425553 -28.150183 0.000000 -0.000000 0.000000 8.175591 -14.126071 34.956034 1.087679 3.737681 -3.817671 1.885544 -0.601767 -2.306133 -9.632445 12.436692 -18.075320 -5.434576 7.453284 -9.855485 -16.214088 -8.898554 -4.404319 -54.576820 -11.925743 10.792328 117.590803 -65.196234 -90.096731 10.019640 -19.168735 -14.411827 14.385338 7.539758 3.630446 36.502959 -8.758478 3.711638 -22.687036 64.737180 -6.070389 -4.746979 14.387276 -2.012463 
2.151386 -0.165118 0.861324 -113.809439 4.074652 108.758597 -4.539299 1.183224 7.595989 -8.415017 -18.059945 27.499719 -16.904076 4.226202 4.559256 0.000000 -0.000000 0.000000 -6.665389 2.040387 -61.878210 -4.398406 -24.845027 70.818958 5.706725 3.530814 -26.536333 0.000000 -0.000000 0.000000 7.635179 -14.683211 41.832519 -1.570098 5.017396 -3.877536 1.449078 0.356449 -1.923824 -12.204792 11.132847 -16.524749 -5.239019 7.825541 -15.134709 -17.003842 -9.006925 -4.944763 -54.588717 -7.860629 10.076227 116.843149 -60.940734 -89.980702 10.983856 -20.188355 -12.351162 12.874510 11.464691 3.073711 36.287396 -6.594422 3.866706 -23.075563 67.451934 -7.102358 -4.507104 14.582061 -0.365231 
2.073007 -0.155379 0.872885 -118.493153 4.088773 108.551641 -5.261533 0.894508 0.973253 -6.959769 -7.840810 38.388910 -13.192609 6.722069 2.691895 0.000000 -0.000000 0.000000 -4.144135 3.623936 -59.509087 -4.202102 -24.549547 65.598562 5.273730 2.457258 -24.500487 0.000000 -0.000000 0.000000 6.352352 -13.173816 49.516064 -3.111090 4.740575 -3.607962 1.826771 0.736194 -1.668212 -14.317815 5.862358 -14.184077 -4.068707 8.894175 -21.159422 -18.369023 -11.569297 -3.714074 -54.492974 -5.984522 7.807935 102.571551 -59.123101 -80.259195 10.662205 -17.435603 -14.504880 11.399841 15.977192 1.941133 36.178947 -3.754257 3.647647 -30.867909 68.435741 -15.227787 -2.739630 13.846822 2.660429 
1.997932 -0.143956 0.875064 -121.766417 2.822910 108.539568 -3.575606 -0.657844 -11.165437 -5.102556 1.376725 55.885609 -7.266335 7.370953 -2.698697 0.000000 -0.000000 0.000000 -2.739178 3.958011 -54.465453 -4.890523 -20.813497 64.224770 1.589050 -2.116193 -25.689277 0.000000 -0.000000 0.000000 4.978878 -10.220998 56.312481 -3.541800 3.022460 -1.888354 2.313277 0.296482 -2.070649 -15.450557 -0.193462 -12.221812 -1.928913 8.408396 -25.135031 -20.158090 -16.285909 -1.917332 -51.509244 -6.167274 5.324595 83.195481 -55.288284 -68.624911 13.740642 -14.429572 -19.028168 10.456492 21.476892 0.294679 34.838642 -0.119611 3.530073 -42.309884 67.070973 -27.302195 -3.144950 13.260893 6.541421 
